<?xml version="1.0" encoding="utf-8"?><!-- Uploaded to: SVG Repo, www.svgrepo.com, Generator: SVG Repo Mixer Tools -->
<svg width="800px" height="800px" viewBox="0 -0.5 25 25" fill="none" xmlns="http://www.w3.org/2000/svg">
<path fill-rule="evenodd" clip-rule="evenodd" d="M15 7C15 5.89543 14.1046 5 13 5C11.8954 5 11 5.89543 11 7H15Z" stroke="#000000" stroke-width="1.5" stroke-linecap="round" stroke-linejoin="round"/>
<path d="M10.5303 12.4696C10.2374 12.1767 9.76256 12.1767 9.46967 12.4696C9.17678 12.7625 9.17678 13.2374 9.46967 13.5303L10.5303 12.4696ZM12 15L11.4697 15.5303C11.7626 15.8232 12.2374 15.8232 12.5303 15.5303L12 15ZM16.5303 11.5303C16.8232 11.2374 16.8232 10.7625 16.5303 10.4696C16.2374 10.1767 15.7626 10.1767 15.4697 10.4696L16.5303 11.5303ZM15 6.24996C14.5858 6.24996 14.25 6.58574 14.25 6.99996C14.25 7.41417 14.5858 7.74996 15 7.74996V6.24996ZM16.667 6.99996V7.74996C16.675 7.74996 16.6831 7.74983 16.6911 7.74957L16.667 6.99996ZM18.5 8.71396H19.25C19.25 8.70522 19.2498 8.69649 19.2495 8.68776L18.5 8.71396ZM18.5 17.285L19.2496 17.3107C19.2499 17.3021 19.25 17.2936 19.25 17.285H18.5ZM16.667 19L16.6911 18.2503C16.6831 18.2501 16.675 18.25 16.667 18.25V19ZM9.333 19V18.25C9.32497 18.25 9.31694 18.2501 9.30891 18.2503L9.333 19ZM7.5 17.286H6.75C6.75 17.2947 6.75015 17.3034 6.75046 17.3122L7.5 17.286ZM7.5 8.71396L6.75046 8.68776C6.75015 8.69649 6.75 8.70522 6.75 8.71396H7.5ZM9.333 6.99996L9.30891 7.74957C9.31694 7.74983 9.32497 7.74996 9.333 7.74996V6.99996ZM11 7.74996C11.4142 7.74996 11.75 7.41417 11.75 6.99996C11.75 6.58574 11.4142 6.24996 11 6.24996V7.74996ZM9.46967 13.5303L11.4697 15.5303L12.5303 14.4696L10.5303 12.4696L9.46967 13.5303ZM12.5303 15.5303L16.5303 11.5303L15.4697 10.4696L11.4697 14.4696L12.5303 15.5303ZM15 7.74996H16.667V6.24996H15V7.74996ZM16.6911 7.74957C17.2569 7.73139 17.7307 8.17444 17.7505 8.74016L19.2495 8.68776C19.2009 7.29576 18.035 6.2056 16.6429 6.25035L16.6911 7.74957ZM17.75 8.71396V17.285H19.25V8.71396H17.75ZM17.7504 17.2592C17.731 17.8251 17.2571 18.2685 16.6911 18.2503L16.6429 19.7496C18.0356 19.7943 19.2017 18.7033 19.2496 17.3107L17.7504 17.2592ZM16.667 18.25H9.333V19.75H16.667V18.25ZM9.30891 18.2503C8.74313 18.2685 8.26932 17.8255 8.24954 17.2598L6.75046 17.3122C6.79912 18.7042 7.96497 19.7943 9.35709 19.7496L9.30891 18.2503ZM8.25 17.286V8.71396H6.75V17.286H8.25ZM8.24954 8.74016C8.26932 8.17444 8.74313 7.73139 9.30891 7.74957L9.35709 6.25035C7.96496 6.2056 6.79912 7.29576 6.75046 8.68776L8.24954 8.74016ZM9.333 7.74996H11V6.24996H9.333V7.74996Z" fill="#000000"/>
</svg>